<svg xmlns="http://www.w3.org/2000/svg" width="19" height="21.111" viewBox="0 0 19 21.111">
  <g id="Group_44" data-name="Group 44" transform="translate(-3 -2)">
    <path id="Path_10" data-name="Path 10" d="M16.924,2H8.077C4.868,2,3,3.879,3,7.1V18c0,3.272,1.868,5.109,5.077,5.109h8.847C20.184,23.111,22,21.274,22,18V7.1C22,3.879,20.184,2,16.924,2Z" fill="#fff" opacity="0.4"/>
    <path id="Path_11" data-name="Path 11" d="M8.128,6.65v.011a.823.823,0,0,0,0,1.647h3.155a.829.829,0,0,0,0-1.657ZM16.4,13.078H8.128a.824.824,0,0,1,0-1.648H16.4a.824.824,0,0,1,0,1.648Zm0,4.824H8.128a.82.82,0,0,1-.792-.38.839.839,0,0,1,0-.887.828.828,0,0,1,.792-.391H16.4a.834.834,0,0,1,0,1.657Z" transform="translate(0.234 0.258)" fill="#fff" fill-rule="evenodd"/>
  </g>
</svg>
