<svg xmlns="http://www.w3.org/2000/svg" width="19.211" height="20.222" viewBox="0 0 19.211 20.222">
  <g id="Group_46" data-name="Group 46" transform="translate(-2.5 -2)">
    <path id="Path_12" data-name="Path 12" d="M12.044,14.893a2.857,2.857,0,1,1,2.9-2.851A2.885,2.885,0,0,1,12.044,14.893Z" transform="translate(0.073 0.08)" fill="#fff"/>
    <path id="Path_13" data-name="Path 13" d="M21.438,14.508a2.327,2.327,0,0,0-.837-.8,1.564,1.564,0,0,1-.641-.647,1.842,1.842,0,0,1,.661-2.528,2.05,2.05,0,0,0,.765-2.861l-.692-1.193a2.136,2.136,0,0,0-2.9-.768,2,2,0,0,1-2.6-.7,1.563,1.563,0,0,1-.238-.89,1.8,1.8,0,0,0-.279-1.072A2.176,2.176,0,0,0,12.831,2H11.374A2.219,2.219,0,0,0,9.545,3.052a1.8,1.8,0,0,0-.289,1.072,1.563,1.563,0,0,1-.238.89,1.985,1.985,0,0,1-2.594.7,2.148,2.148,0,0,0-2.914.768L2.818,7.672a2.067,2.067,0,0,0,.765,2.861,1.854,1.854,0,0,1,.672,2.528,1.652,1.652,0,0,1-.651.647,2.142,2.142,0,0,0-.827.8A2.017,2.017,0,0,0,2.8,16.58l.713,1.213a2.157,2.157,0,0,0,1.839,1.052,2.185,2.185,0,0,0,1.1-.3,1.6,1.6,0,0,1,.909-.233,1.913,1.913,0,0,1,1.9,1.84A2.093,2.093,0,0,0,11.4,22.222H12.81a2.091,2.091,0,0,0,2.139-2.073,1.93,1.93,0,0,1,1.912-1.84,1.648,1.648,0,0,1,.909.233,2.12,2.12,0,0,0,2.924-.748l.723-1.213A2.041,2.041,0,0,0,21.438,14.508Z" transform="translate(0 0)" fill="#fff" opacity="0.4"/>
  </g>
</svg>
